# xmcd
#
# Track frame offsets:
#	150
#	14735
#	33810
#	50870
#	60935
#	78257
#	95457
#	114487
#	122890
#	142270
#	159567
#	177657
#
# Disc length: 2593 seconds
#
# Revision: 1
# Processed by: cddbd v1.5.1PL2 Copyright (c) Steve Scherf et al.
# Submitted via: audiograbber 1.83.01
#
DISCID=a60a1f0c
DTITLE=Steve Fisher - Brokenland Parkway
DYEAR=2006
DGENRE=Country
TTITLE0=Welcome To Damascus
TTITLE1=Louisiana 1927
TTITLE2=County Line
TTITLE3=Willie Comes Home
TTITLE4=Manchester Bridge
TTITLE5=Harper´s Ferry Train
TTITLE6=Rafael
TTITLE7=Green Bean Blues
TTITLE8=Supposed To Be
TTITLE9=Tobacco Row
TTITLE10=Old Stone Church
TTITLE11=Collateral Damage
EXTD=
EXTT0=
EXTT1=
EXTT2=
EXTT3=
EXTT4=
EXTT5=
EXTT6=
EXTT7=
EXTT8=
EXTT9=
EXTT10=
EXTT11=
PLAYORDER=
